HIERARCHY
ROOT hip
{
  OFFSET 0 0 0
  CHANNELS 6 Xposition Yposition Zposition Zrotation Yrotation Xrotation
  JOINT abdomen
  {
    OFFSET 0 20.6881 -0.73152
    CHANNELS 3 Zrotation Xrotation Yrotation
    JOINT chest
    {
      OFFSET 0 11.7043 -0.48768
      CHANNELS 3 Zrotation Xrotation Yrotation
      JOINT neck
      {
        OFFSET 0 22.1894 -2.19456
        CHANNELS 3 Zrotation Xrotation Yrotation
        JOINT head
        {
          OFFSET -0.24384 7.07133 1.2192
          CHANNELS 3 Zrotation Xrotation Yrotation
          JOINT leftEye
          {
            OFFSET 4.14528 8.04674 8.04672
            CHANNELS 3 Zrotation Xrotation Yrotation
            End Site
            {
              OFFSET 1 0 0
            }
          }
          JOINT rightEye
          {
            OFFSET -3.6576 8.04674 8.04672
            CHANNELS 3 Zrotation Xrotation Yrotation
            End Site
            {
              OFFSET 1 0 0
            }
          }
        }
      }
      JOINT rCollar
      {
        OFFSET -2.68224 19.2634 -4.8768
        CHANNELS 3 Zrotation Xrotation Yrotation
        JOINT rShldr
        {
          OFFSET -8.77824 -1.95073 1.46304
          CHANNELS 3 Zrotation Xrotation Yrotation
          JOINT rForeArm
          {
            OFFSET -28.1742 -1.7115 0.48768
            CHANNELS 3 Zrotation Xrotation Yrotation
            JOINT rHand
            {
              OFFSET -22.5879 0.773209 7.07136
              CHANNELS 3 Zrotation Xrotation Yrotation
              JOINT rThumb1
              {
                OFFSET -1.2192 -0.487915 3.41376
                CHANNELS 3 Zrotation Xrotation Yrotation
                JOINT rThumb2
                {
                  OFFSET -3.37035 -0.52449 3.41376
                  CHANNELS 3 Zrotation Xrotation Yrotation
                  End Site
                  {
                    OFFSET -1.78271 -1.18214 1.43049
                  }
                }
              }
              JOINT rIndex1
              {
                OFFSET -7.75947 0.938293 5.60832
                CHANNELS 3 Zrotation Xrotation Yrotation
                JOINT rIndex2
                {
                  OFFSET -2.54057 -0.884171 1.56538
                  CHANNELS 3 Zrotation Xrotation Yrotation
                  End Site
                  {
                    OFFSET -1.62519 -0.234802 1.16502
                  }
                }
              }
              JOINT rMid1
              {
                OFFSET -8.24714 1.18213 3.41376
                CHANNELS 3 Zrotation Xrotation Yrotation
                JOINT rMid2
                {
                  OFFSET -3.10165 -0.590103 1.0647
                  CHANNELS 3 Zrotation Xrotation Yrotation
                  End Site
                  {
                    OFFSET -2.48547 -0.328903 0.83742
                  }
                }
              }
              JOINT rRing1
              {
                OFFSET -8.82822 0.546677 1.51678
                CHANNELS 3 Zrotation Xrotation Yrotation
                JOINT rRing2
                {
                  OFFSET -2.60934 -0.819778 -0.0198488
                  CHANNELS 3 Zrotation Xrotation Yrotation
                  End Site
                  {
                    OFFSET -2.33842 -0.294052 0.168128
                  }
                }
              }
              JOINT rPinky1
              {
                OFFSET -8.27202 -0.0477905 -0.4584
                CHANNELS 3 Zrotation Xrotation Yrotation
                JOINT rPinky2
                {
                  OFFSET -1.82734 -0.647385 -0.700984
                  CHANNELS 3 Zrotation Xrotation Yrotation
                  End Site
                  {
                    OFFSET -1.69225 -0.51767 -0.607171
                  }
                }
              }
            }
          }
        }
      }
      JOINT lCollar
      {
        OFFSET 2.68224 19.2634 -4.8768
        CHANNELS 3 Zrotation Xrotation Yrotation
        JOINT lShldr
        {
          OFFSET 8.77824 -1.95073 1.46304
          CHANNELS 3 Zrotation Xrotation Yrotation
          JOINT lForeArm
          {
            OFFSET 28.1742 -1.7115 0.48768
            CHANNELS 3 Zrotation Xrotation Yrotation
            JOINT lHand
            {
              OFFSET 22.5879 0.773209 7.07136
              CHANNELS 3 Zrotation Xrotation Yrotation
              JOINT lThumb1
              {
                OFFSET 1.2192 -0.487915 3.41376
                CHANNELS 3 Zrotation Xrotation Yrotation
                JOINT lThumb2
                {
                  OFFSET 3.37035 -0.52449 3.41376
                  CHANNELS 3 Zrotation Xrotation Yrotation
                  End Site
                  {
                    OFFSET 1.78271 -1.18214 1.43049
                  }
                }
              }
              JOINT lIndex1
              {
                OFFSET 7.75947 0.938293 5.60832
                CHANNELS 3 Zrotation Xrotation Yrotation
                JOINT lIndex2
                {
                  OFFSET 2.54057 -0.884171 1.56538
                  CHANNELS 3 Zrotation Xrotation Yrotation
                  End Site
                  {
                    OFFSET 1.62519 -0.234802 1.16502
                  }
                }
              }
              JOINT lMid1
              {
                OFFSET 8.24714 1.18213 3.41376
                CHANNELS 3 Zrotation Xrotation Yrotation
                JOINT lMid2
                {
                  OFFSET 3.10165 -0.590103 1.0647
                  CHANNELS 3 Zrotation Xrotation Yrotation
                  End Site
                  {
                    OFFSET 2.48547 -0.328903 0.83742
                  }
                }
              }
              JOINT lRing1
              {
                OFFSET 8.82822 0.546677 1.51678
                CHANNELS 3 Zrotation Xrotation Yrotation
                JOINT lRing2
                {
                  OFFSET 2.60934 -0.819778 -0.0198488
                  CHANNELS 3 Zrotation Xrotation Yrotation
                  End Site
                  {
                    OFFSET 2.33842 -0.294052 0.168128
                  }
                }
              }
              JOINT lPinky1
              {
                OFFSET 8.27202 -0.0477905 -0.4584
                CHANNELS 3 Zrotation Xrotation Yrotation
                JOINT lPinky2
                {
                  OFFSET 1.82734 -0.647385 -0.700984
                  CHANNELS 3 Zrotation Xrotation Yrotation
                  End Site
                  {
                    OFFSET 1.69225 -0.51767 -0.607171
                  }
                }
              }
            }
          }
        }
      }
    }
  }
  JOINT rButtock
  {
    OFFSET -8.77824 4.35084 1.2192
    CHANNELS 3 Zrotation Xrotation Yrotation
    JOINT rThigh
    {
      OFFSET 0 -1.70687 -2.19456
      CHANNELS 3 Zrotation Xrotation Yrotation
      JOINT rShin
      {
        OFFSET 0 -36.8199 0.73152
        CHANNELS 3 Zrotation Xrotation Yrotation
        JOINT rFoot
        {
          OFFSET 0.73152 -45.1104 -5.12064
          CHANNELS 3 Zrotation Xrotation Yrotation
          End Site
          {
            OFFSET -1.1221 -3.69964 12.103
          }
        }
      }
    }
  }
  JOINT lButtock
  {
    OFFSET 8.77824 4.35084 1.2192
    CHANNELS 3 Zrotation Xrotation Yrotation
    JOINT lThigh
    {
      OFFSET 0 -1.70687 -2.19456
      CHANNELS 3 Zrotation Xrotation Yrotation
      JOINT lShin
      {
        OFFSET 0 -36.8199 0.73152
        CHANNELS 3 Zrotation Xrotation Yrotation
        JOINT lFoot
        {
          OFFSET -0.73152 -45.1104 -5.12064
          CHANNELS 3 Zrotation Xrotation Yrotation
          End Site
          {
            OFFSET 1.1221 -3.69964 12.103
          }
        }
      }
    }
  }
}
MOTION
Frames:	8
Frame Time:	0.00833333
-3.11335 84.2564 37.6615 0.0 0.0 0.0 -1.24151 -0.00398118 -0.0340789 -0.342494 -0.00249262 -0.0593273 -3.70584e-14 -7.95139e-16 2.60905e-16 -1.11102e-13 3.18055e-15 7.67185e-16 -0.0 0.0 0.0 -0.0 0.0 0.0 -1.84395e-14 -5.04727e-17 2.98177e-16 -3.87758e-13 -9.19379e-16 2.18663e-15 -6.69835e-12 1.96777e-12 1.33583e-13 -7.66493e-11 -2.19836e-12 3.81667e-13 -1.80806e-10 -5.05741e-13 1.15454e-12 -3.12246e-10 -8.77833e-13 1.99421e-12 -1.80802e-10 -5.02528e-13 1.145e-12 7.73091 5.47488 0.417314 -1.80805e-10 -5.05311e-13 1.15136e-12 2.90554 0.965183 0.102902 -1.80799e-10 -5.0541e-13 1.15136e-12 10.2786 0.731801 0.0259123 -1.80808e-10 -5.04913e-13 1.15772e-12 2.22167 -0.733487 -0.20892 -1.85357e-14 -5.04727e-17 -9.93923e-17 -3.91314e-13 -1.03741e-15 3.97569e-16 -6.69959e-12 -2.03814e-12 6.67917e-14 -7.6663e-11 1.80439e-12 4.6118e-13 -1.80832e-10 -5.09846e-13 1.13546e-12 -3.12275e-10 -8.81014e-13 1.98864e-12 -1.80837e-10 -5.08889e-13 1.145e-12 -7.73091 5.47488 -0.417314 -1.80832e-10 -5.1028e-13 1.13546e-12 -2.90554 0.965183 -0.102902 -1.80839e-10 -5.09783e-13 1.1442e-12 -10.2786 0.731801 -0.0259123 -1.80826e-10 -5.07696e-13 1.14182e-12 -2.22167 -0.733487 0.20892 -2.03217e-16 0.0 -3.88251e-19 -0.453804 -1.92099 -0.00952771 -0.00915587 -2.07857 -0.0755545 -0.48749 3.99699 0.136658 2.03217e-16 0.0 3.88251e-19 -1.43725 -5.97115 0.129661 -0.00126444 5.25796 -0.0454157 0.507788 0.710741 -0.0722708
-4.07264 84.1557 37.0034 -2.7966 -3.2027 -0.5474 -0.536031 0.191583 0.475192 -0.222756 -0.927079 0.10114 1.16968 2.04331 1.31636 0.643117 0.570213 2.427 -0.0 0.0 0.0 -0.0 0.0 0.0 -2.7276e-14 -5.72967e-15 1.77124e-14 23.4198 7.24821 -4.20426 -6.23514 -3.39702 9.04846 0.0602551 5.44968 0.753445 -7.59094e-11 -1.28124e-10 8.50057e-11 -1.30301e-10 -2.21496e-10 1.45819e-10 -7.59042e-11 -1.28123e-10 8.49961e-11 7.73091 5.47488 0.417314 -7.59092e-11 -1.28123e-10 8.50033e-11 2.90554 0.965183 0.102902 -7.59033e-11 -1.28123e-10 8.50019e-11 10.2786 0.731801 0.0259123 -7.59118e-11 -1.28122e-10 8.50087e-11 2.22167 -0.733487 -0.20892 -2.73388e-14 -5.73e-15 1.7351e-14 -23.5769 7.74845 2.52963 5.12989 -2.54622 -7.76485 -1.39175e-06 0.0300129 -0.00421803 1.3023e-11 -5.01766e-11 5.87862e-11 2.27088e-11 -8.76498e-11 1.01455e-10 1.30184e-11 -5.0173e-11 5.87985e-11 -7.73091 5.47488 -0.417314 1.30243e-11 -5.01742e-11 5.87863e-11 -2.90554 0.965183 -0.102902 1.30174e-11 -5.01728e-11 5.87936e-11 -10.2786 0.731801 -0.0259123 1.30261e-11 -5.01706e-11 5.87909e-11 -2.22167 -0.733487 0.20892 -2.03217e-16 0.0 -3.88251e-19 -1.56493 0.170007 0.89319 -0.00552055 -1.53304 -0.0504882 -0.509434 -0.454157 -2.34035 2.03217e-16 0.0 3.88251e-19 1.28156 -6.18798 -1.21784 -0.0138598 10.1459 -0.177056 0.923992 -4.77826 3.80224
-4.07217 84.1538 36.999 -2.796 -3.2006 -0.5278 0.206877 0.398406 1.01382 -0.0909428 -1.90434 0.270953 2.30585 4.19963 2.71368 1.26673 1.17196 4.9935 -0.0 0.0 0.0 -0.0 0.0 0.0 -3.78437e-14 -1.2023e-14 3.79896e-14 49.3664 14.7815 -8.87636 -11.6744 -6.70613 18.7147 -0.0346123 11.2035 1.57237 4.45853e-11 -2.795e-10 1.83252e-10 7.87652e-11 -4.83167e-10 3.14271e-10 4.45914e-11 -2.795e-10 1.83243e-10 7.73091 5.47488 0.417314 4.45848e-11 -2.79499e-10 1.83251e-10 2.90554 0.965183 0.102902 4.45904e-11 -2.79498e-10 1.83248e-10 10.2786 0.731801 0.0259123 4.45822e-11 -2.79496e-10 1.83255e-10 2.22167 -0.733487 -0.20892 -3.78709e-14 -1.20237e-14 3.76635e-14 -49.27 15.8906 5.36117 9.81003 -5.08233 -16.0226 2.18055e-06 0.0600474 -0.00843911 2.26666e-10 -1.07139e-10 1.32258e-10 3.91883e-10 -1.87163e-10 2.28282e-10 2.26662e-10 -1.07133e-10 1.32273e-10 -7.73091 5.47488 -0.417314 2.26669e-10 -1.07133e-10 1.32258e-10 -2.90554 0.965183 -0.102902 2.26662e-10 -1.07131e-10 1.32264e-10 -10.2786 0.731801 -0.0259123 2.26666e-10 -1.07129e-10 1.32261e-10 -2.22167 -0.733487 0.20892 -2.03217e-16 0.0 -3.88251e-19 -2.81079 2.37932 1.84951 -0.00219638 -0.956393 -0.0240071 -0.951793 -5.14109 -4.9789 2.03217e-16 0.0 3.88251e-19 4.14464 -6.41312 -2.64478 -0.0018611 15.3131 -0.322198 2.18122 -10.5026 8.00684
-4.075 84.1543 36.9997 -2.8101 -3.1968 -0.5318 0.864504 0.582532 1.4938 0.0322702 -2.77618 0.42253 3.22626 6.11696 3.96921 1.78481 1.69837 7.28385 -0.0 0.0 0.0 -0.0 0.0 0.0 -4.49489e-14 -1.70881e-14 5.25409e-14 73.6183 21.2594 -13.4419 -15.5863 -9.17607 27.478 -0.264488 16.3375 2.34485 1.33884e-10 -3.83361e-10 2.52708e-10 2.33588e-10 -6.62731e-10 4.33468e-10 1.33891e-10 -3.83362e-10 2.52698e-10 7.73091 5.47488 0.417314 1.33883e-10 -3.8336e-10 2.52707e-10 2.90554 0.965183 0.102902 1.33888e-10 -3.83358e-10 2.52703e-10 10.2786 0.731801 0.0259123 1.3388e-10 -3.83356e-10 2.52711e-10 2.22167 -0.733487 -0.20892 -4.49451e-14 -1.70891e-14 5.22516e-14 -72.9275 23.056 8.17661 13.3695 -7.0787 -23.4608 9.08194e-06 0.0900386 -0.0126541 4.00732e-10 -1.4951e-10 1.74088e-10 6.92677e-10 -2.61187e-10 3.00388e-10 4.0073e-10 -1.49501e-10 1.74106e-10 -7.73091 5.47488 -0.417314 4.00737e-10 -1.49502e-10 1.74088e-10 -2.90554 0.965183 -0.102902 4.0073e-10 -1.49499e-10 1.74092e-10 -10.2786 0.731801 -0.0259123 4.0073e-10 -1.49497e-10 1.74089e-10 -2.22167 -0.733487 0.20892 -2.03217e-16 0.0 -3.88251e-19 -3.98516 4.34722 2.70639 0.000318464 -0.441986 -0.000401018 -1.71516 -9.28123 -7.39077 2.03217e-16 0.0 3.88251e-19 6.68849 -6.61043 -3.91622 0.0324211 19.9213 -0.459936 4.03613 -15.4621 11.9501
-4.0726 84.1566 37.0041 -2.7968 -3.1964 -0.5558 1.31631 0.710086 1.82711 0.122998 -3.38455 0.528073 3.80728 7.44922 4.85114 2.14186 2.04821 8.88108 -0.0 0.0 0.0 -0.0 0.0 0.0 -4.33976e-14 -1.90824e-14 5.27773e-14 91.1978 25.5605 -16.9491 -17.8416 -10.5174 33.6658 -0.513457 19.9327 2.92139 1.45192e-10 -3.68435e-10 2.50186e-10 2.52801e-10 -6.37027e-10 4.29525e-10 1.452e-10 -3.68437e-10 2.50176e-10 7.73091 5.47488 0.417314 1.45191e-10 -3.68434e-10 2.50186e-10 2.90554 0.965183 0.102902 1.45196e-10 -3.68432e-10 2.50181e-10 10.2786 0.731801 0.0259123 1.45188e-10 -3.68429e-10 2.50189e-10 2.22167 -0.733487 -0.20892 -4.33748e-14 -1.90833e-14 5.25288e-14 -89.8959 27.9589 10.3941 15.5322 -8.25972 -28.6911 1.76393e-05 0.119921 -0.0168539 4.75859e-10 -1.55402e-10 1.36812e-10 8.2252e-10 -2.71489e-10 2.35692e-10 4.75856e-10 -1.55392e-10 1.36831e-10 -7.73091 5.47488 -0.417314 4.75864e-10 -1.55393e-10 1.36812e-10 -2.90554 0.965183 -0.102902 4.75856e-10 -1.5539e-10 1.36815e-10 -10.2786 0.731801 -0.0259123 4.75855e-10 -1.55387e-10 1.36812e-10 -2.22167 -0.733487 0.20892 -2.03217e-16 0.0 -3.88251e-19 -4.84077 5.7165 3.30561 0.00181979 -0.0831905 0.0160424 -2.45831 -12.132 -9.12387 2.03217e-16 0.0 3.88251e-19 8.45581 -6.74643 -4.79648 0.070642 23.132 -0.562226 5.75477 -18.7928 14.852
-4.06378 84.1568 37.0063 -2.7589 -3.182 -0.5672 1.48287 0.759509 1.95629 0.164375 -3.62303 0.569316 4.00565 7.96679 5.19729 2.31414 2.16029 9.50674 -0.0 0.0 0.0 -0.0 0.0 0.0 -2.62232e-14 -1.63305e-14 2.70467e-14 98.2256 27.1637 -18.3956 -18.6262 -10.936 36.0899 -0.635257 21.3879 3.16513 2.35132e-11 -1.44922e-10 1.19997e-10 4.06633e-11 -2.50849e-10 2.07176e-10 2.35209e-11 -1.44924e-10 1.19988e-10 7.73091 5.47488 0.417314 2.35118e-11 -1.44921e-10 1.19998e-10 2.90554 0.965183 0.102902 2.35179e-11 -1.4492e-10 1.19993e-10 10.2786 0.731801 0.0259123 2.35093e-11 -1.44917e-10 1.20001e-10 2.22167 -0.733487 -0.20892 -2.61986e-14 -1.63308e-14 2.68538e-14 -96.6593 29.8329 11.3351 16.3058 -8.65944 -30.7325 2.77943e-05 0.148304 -0.0208429 3.90415e-10 -9.96676e-11 -4.97764e-11 6.74922e-10 -1.74137e-10 -8.7268e-11 3.90409e-10 -9.96596e-11 -4.97585e-11 -7.73091 5.47488 -0.417314 3.90417e-10 -9.96619e-11 -4.97778e-11 -2.90554 0.965183 -0.102902 3.90408e-10 -9.96582e-11 -4.97755e-11 -10.2786 0.731801 -0.0259123 3.90411e-10 -9.96554e-11 -4.97775e-11 -2.22167 -0.733487 0.20892 -2.03217e-16 0.0 -3.88251e-19 -5.18872 6.2516 3.53803 0.00234871 0.0578854 0.0224548 -2.79614 -13.2383 -9.81144 2.03217e-16 0.0 3.88251e-19 9.14561 -6.79937 -5.12325 0.0890192 24.3861 -0.60351 6.51751 -20.0485 16.0174
-4.06047 84.1566 37.0078 -2.7442 -3.1769 -0.5747 1.44645 0.753113 1.9396 0.169321 -3.59739 0.564517 3.95151 7.90515 5.15681 2.36451 2.10475 9.43789 -0.0 0.0 0.0 -0.0 0.0 0.0 1.94356e-15 -1.02097e-14 -1.69495e-14 97.4128 26.9472 -18.2008 -18.5316 -10.8807 35.7955 -0.626696 21.3169 3.15251 -1.92024e-10 2.25569e-10 -1.00102e-10 -3.34749e-10 3.8933e-10 -1.68987e-10 -1.92016e-10 2.25567e-10 -1.0011e-10 7.73091 5.47488 0.417314 -1.92024e-10 2.25568e-10 -1.001e-10 2.90554 0.965183 0.102902 -1.92017e-10 2.25569e-10 -1.00103e-10 10.2786 0.731801 0.0259123 -1.92027e-10 2.25572e-10 -1.00096e-10 2.22167 -0.733487 -0.20892 1.95771e-15 -1.0209e-14 -1.70768e-14 -95.9104 29.5876 11.2271 16.2085 -8.60482 -30.4768 3.9727e-05 0.17568 -0.0246903 1.91327e-10 -4.17194e-13 -3.41179e-10 3.30966e-10 -7.66512e-13 -5.91524e-10 1.91318e-10 -4.12607e-13 -3.41164e-10 -7.73091 5.47488 -0.417314 1.91325e-10 -4.16833e-13 -3.41183e-10 -2.90554 0.965183 -0.102902 1.91315e-10 -4.1351e-13 -3.41181e-10 -10.2786 0.731801 -0.0259123 1.91325e-10 -4.10165e-13 -3.41181e-10 -2.22167 -0.733487 0.20892 -2.03217e-16 0.0 -3.88251e-19 -5.15946 6.19193 3.50609 0.00228699 0.0434412 0.0217026 -2.75443 -13.1165 -9.72336 2.03217e-16 0.0 3.88251e-19 9.06791 -6.794 -5.05462 0.0868472 24.2426 -0.597923 6.41325 -19.8843 15.8624
-4.06485 84.1559 37.0142 -2.7599 -3.1908 -0.5626 1.3294 0.722871 1.86253 0.158083 -3.46779 0.540549 3.79148 7.61862 4.96065 2.37244 1.98005 9.09019 -0.0 0.0 0.0 -0.0 0.0 0.0 2.8901e-14 -3.45685e-15 -5.877e-14 93.472 26.001 -17.3576 -18.0854 -10.6358 34.4174 -0.564509 20.6252 3.03527 -4.07022e-10 5.87193e-10 -3.13128e-10 -7.09076e-10 1.01415e-09 -5.33058e-10 -4.07014e-10 5.87192e-10 -3.13135e-10 7.73091 5.47488 0.417314 -4.07022e-10 5.87191e-10 -3.13126e-10 2.90554 0.965183 0.102902 -4.07014e-10 5.87192e-10 -3.13127e-10 10.2786 0.731801 0.0259123 -4.07024e-10 5.87195e-10 -3.13121e-10 2.22167 -0.733487 -0.20892 2.89006e-14 -3.45522e-15 -5.88426e-14 -92.1642 28.4956 10.7086 15.77 -8.37501 -29.3203 5.32362e-05 0.20481 -0.0287843 -1.79294e-11 9.93511e-11 -6.12806e-10 -3.05569e-11 1.73503e-10 -1.06151e-09 -1.79427e-11 9.93521e-11 -6.12794e-10 -7.73091 5.47488 -0.417314 -1.79364e-11 9.9346e-11 -6.12811e-10 -2.90554 0.965183 -0.102902 -1.7947e-11 9.93489e-11 -6.1281e-10 -10.2786 0.731801 -0.0259123 -1.79307e-11 9.93527e-11 -6.12809e-10 -2.22167 -0.733487 0.20892 -2.03217e-16 0.0 -3.88251e-19 -4.97766 5.89409 3.3661 0.00199026 -0.0334308 0.0180972 -2.56208 -12.5027 -9.32763 2.03217e-16 0.0 3.88251e-19 8.68297 -6.7673 -4.83544 0.0765196 23.5411 -0.573801 5.96651 -19.1562 15.183
